<?xml version="1.0" encoding="UTF-8" standalone="no"?>
<!-- Created with Inkscape (http://www.inkscape.org/) -->

<svg
   width="13.229376mm"
   height="13.229171mm"
   viewBox="0 0 13.229376 13.229171"
   version="1.1"
   id="svg1"
   xml:space="preserve"
   xmlns="http://www.w3.org/2000/svg"
   xmlns:svg="http://www.w3.org/2000/svg"><defs
     id="defs1"><linearGradient
       id="swatch13"><stop
         style="stop-color:#004780;stop-opacity:1;"
         offset="0"
         id="stop14" /></linearGradient><linearGradient
       id="swatch12"><stop
         style="stop-color:#004780;stop-opacity:1;"
         offset="0"
         id="stop13" /></linearGradient><linearGradient
       id="swatch11"><stop
         style="stop-color:#004780;stop-opacity:1;"
         offset="0"
         id="stop12" /></linearGradient></defs><g
     id="layer1"
     transform="translate(-105.32302,-61.008257)"><path
       style="fill:#999999;fill-opacity:1;stroke-width:0.0380055"
       d="m 107.29168,74.229529 c -0.47717,-0.03637 -0.97135,-0.270807 -1.33332,-0.632524 -0.25041,-0.250235 -0.42081,-0.525642 -0.53664,-0.867336 -0.0731,-0.215807 -0.0849,-0.288967 -0.0949,-0.590605 -0.01,-0.288542 -0.002,-0.383474 0.0445,-0.586283 0.0584,-0.252439 0.17697,-0.528505 0.31637,-0.736428 0.045,-0.06713 0.7719,-0.81335 1.61533,-1.658284 l 1.53351,-1.536239 -1.53351,-1.536243 c -0.84343,-0.844933 -1.57033,-1.591161 -1.61533,-1.658283 -0.1394,-0.207923 -0.258,-0.483989 -0.31637,-0.736431 -0.0469,-0.202806 -0.0541,-0.297738 -0.0445,-0.58628 0.01,-0.301641 0.0218,-0.3748 0.0949,-0.590605 0.25492,-0.751994 0.84842,-1.285875 1.63111,-1.467263 0.0948,-0.02196 0.29125,-0.03852 0.45642,-0.03847 0.45481,1.78e-4 0.86404,0.123153 1.23707,0.371843 0.0642,0.04281 0.80855,0.767437 1.65407,1.610281 l 1.53731,1.532445 1.53731,-1.532445 c 0.84552,-0.842844 1.58985,-1.567471 1.65407,-1.610281 0.37303,-0.24869 0.78225,-0.371692 1.23707,-0.371843 0.16517,-6.8e-5 0.36166,0.01651 0.45642,0.03847 0.7827,0.181388 1.37619,0.715269 1.63111,1.467263 0.0732,0.215805 0.0849,0.288964 0.0949,0.590605 0.01,0.288542 0.002,0.383474 -0.0445,0.58628 -0.0584,0.252442 -0.17697,0.528508 -0.31636,0.736431 -0.045,0.06712 -0.77191,0.81335 -1.61534,1.658283 l -1.53351,1.536243 1.53351,1.536239 c 0.84343,0.844934 1.57033,1.591159 1.61534,1.658284 0.13939,0.207923 0.25799,0.483989 0.31636,0.736428 0.0469,0.202809 0.0541,0.297741 0.0445,0.586283 -0.01,0.301638 -0.0218,0.374798 -0.0949,0.590605 -0.25492,0.751994 -0.84841,1.285872 -1.63111,1.467263 -0.0948,0.02196 -0.29125,0.03852 -0.45642,0.03847 -0.45482,-1.78e-4 -0.86404,-0.123156 -1.23707,-0.37184 -0.0642,-0.04282 -0.80855,-0.76744 -1.65407,-1.610284 l -1.53731,-1.532448 -1.53731,1.532448 c -0.84552,0.842844 -1.58985,1.567469 -1.65407,1.610284 -0.42902,0.286006 -0.91142,0.407373 -1.45464,0.365969 z"
       id="path1-3" /></g></svg>
