<?xml version="1.0" encoding="UTF-8" standalone="no"?>
<!-- Created with Inkscape (http://www.inkscape.org/) -->

<svg
   width="13.229142mm"
   height="13.229159mm"
   viewBox="0 0 13.229142 13.229159"
   version="1.1"
   id="svg1"
   xml:space="preserve"
   xmlns="http://www.w3.org/2000/svg"
   xmlns:svg="http://www.w3.org/2000/svg"><defs
     id="defs1"><linearGradient
       id="swatch13"><stop
         style="stop-color:#004780;stop-opacity:1;"
         offset="0"
         id="stop14" /></linearGradient><linearGradient
       id="swatch12"><stop
         style="stop-color:#004780;stop-opacity:1;"
         offset="0"
         id="stop13" /></linearGradient><linearGradient
       id="swatch11"><stop
         style="stop-color:#004780;stop-opacity:1;"
         offset="0"
         id="stop12" /></linearGradient></defs><g
     id="layer1"
     transform="translate(-29.188142,-20.874183)"><path
       style="fill:#ff3aff;fill-opacity:1;stroke-width:0.573145"
       d="m 31.996716,34.048946 -0.226203,-0.05441 -0.178001,-0.08664 -0.178002,-0.08664 -0.158506,-0.119492 -0.158507,-0.119492 -0.125522,-0.139467 -0.125521,-0.139468 -0.09513,-0.162981 -0.09513,-0.16298 -0.06123,-0.218611 -0.06123,-0.218611 v -4.04068 -4.04068 l -0.426167,-0.0092 -0.426167,-0.0092 -0.122325,-0.0586 -0.122324,-0.0586 -0.08536,-0.09707 -0.08536,-0.09707 -0.03895,-0.13444 -0.03894,-0.134439 0.03894,-0.134441 0.03895,-0.13444 0.08536,-0.09707 0.08536,-0.09707 0.122324,-0.0586 0.122325,-0.0586 1.414924,-0.0079 1.414925,-0.0079 0.01339,-0.487412 0.0134,-0.487412 0.06632,-0.183969 0.06632,-0.183971 0.117048,-0.180218 0.117049,-0.180219 0.190072,-0.17357 0.190073,-0.173571 0.197352,-0.107045 0.197352,-0.107044 0.216958,-0.06277 0.216958,-0.06277 h 1.689172 1.689173 l 0.216957,0.06277 0.216958,0.06277 0.198722,0.107044 0.198722,0.107045 0.188703,0.173443 0.188703,0.173443 0.117048,0.180346 0.117048,0.180346 0.06632,0.183971 0.06632,0.183969 0.0134,0.487412 0.01339,0.487412 1.414925,0.0079 1.414925,0.0079 0.122324,0.0586 0.122324,0.0586 0.08536,0.09707 0.08537,0.09707 0.03894,0.13444 0.03894,0.134441 -0.03894,0.134439 -0.03894,0.13444 -0.08537,0.09707 -0.08536,0.09707 -0.122324,0.0586 -0.122324,0.0586 -0.425661,0.0092 -0.42566,0.0092 -0.0083,4.108898 -0.0083,4.108897 -0.06892,0.18397 -0.06892,0.18397 -0.117049,0.180218 -0.117048,0.180219 -0.190073,0.173571 -0.190072,0.17357 -0.197352,0.106887 -0.197352,0.106886 -0.201461,0.06293 -0.201461,0.06293 -3.641793,0.0058 -3.641794,0.0058 z m 7.497,-1.230848 0.132007,-0.08491 0.07212,-0.12474 0.07212,-0.12474 v -4.014591 -4.014592 h -3.967544 -3.967543 l 0.0081,4.044913 0.0081,4.044912 0.09298,0.120549 0.09298,0.12055 0.137332,0.06621 0.137331,0.06621 3.525045,-0.0074 3.525044,-0.0074 z m -5.175068,-1.746158 -0.135837,-0.02761 -0.147697,-0.134874 -0.147697,-0.134874 -0.03542,-0.155799 -0.03542,-0.155799 0.009,-1.865032 0.009,-1.865031 0.07748,-0.126107 0.07749,-0.126108 0.134395,-0.08617 0.134394,-0.08617 h 0.224686 0.224687 l 0.121326,0.07737 0.121326,0.07737 0.07749,0.104522 0.07748,0.104522 v 2.016233 2.016233 l -0.09436,0.122727 -0.09436,0.122726 -0.122601,0.0604 -0.122599,0.0604 -0.108479,0.01433 -0.108479,0.01433 z m 2.672394,0.0066 -0.09793,-0.02124 -0.103098,-0.05498 -0.103099,-0.05499 -0.09341,-0.121369 -0.09341,-0.121369 v -2.016233 -2.016233 l 0.07748,-0.104522 0.07749,-0.104523 0.121327,-0.07737 0.121326,-0.07737 h 0.224686 0.224687 l 0.134394,0.08617 0.134394,0.08617 0.07749,0.126107 0.07748,0.126108 0.009,1.865031 0.009,1.865032 -0.03363,0.147935 -0.03363,0.147935 -0.106083,0.113175 -0.106083,0.113175 -0.101754,0.04277 -0.101754,0.04276 -0.108479,0.01454 -0.108479,0.01453 z m 0.789783,-8.235019 -0.01,-0.42223 -0.09298,-0.120432 -0.09298,-0.120432 -0.1366,-0.06586 -0.136599,-0.06585 h -1.508955 -1.508956 l -0.136599,0.06585 -0.1366,0.06586 -0.09298,0.120432 -0.09298,0.120432 -0.01,0.42223 -0.01,0.42223 h 1.988081 1.988081 z"
       id="path4" /></g></svg>
