<?xml version="1.0" encoding="UTF-8" standalone="no"?>
<!-- Created with Inkscape (http://www.inkscape.org/) -->

<svg
   version="1.1"
   id="svg1"
   width="149.99995"
   height="150"
   viewBox="0 0 149.99995 150"
   sodipodi:docname="close.png"
   xmlns:inkscape="http://www.inkscape.org/namespaces/inkscape"
   xmlns:sodipodi="http://sodipodi.sourceforge.net/DTD/sodipodi-0.dtd"
   xmlns="http://www.w3.org/2000/svg"
   xmlns:svg="http://www.w3.org/2000/svg">
  <defs
     id="defs1" />
  <sodipodi:namedview
     id="namedview1"
     pagecolor="#ffffff"
     bordercolor="#000000"
     borderopacity="0.25"
     inkscape:showpageshadow="2"
     inkscape:pageopacity="0.0"
     inkscape:pagecheckerboard="0"
     inkscape:deskcolor="#d1d1d1" />
  <g
     inkscape:groupmode="layer"
     inkscape:label="Image"
     id="g1"
     transform="translate(-76.391182,-43.366543)">
    <path
       style="fill:#ff0000;stroke-width:0.319776"
       d="m 145.46864,193.27095 c -10.37121,-1.08542 -18.54869,-3.3822 -27.18474,-7.63529 -22.309029,-10.98677 -37.471433,-31.81791 -41.309358,-56.75361 -0.696756,-4.52695 -0.79017,-15.66969 -0.167528,-19.98321 3.67972,-25.492244 18.295355,-46.162047 40.677336,-57.526924 11.07544,-5.623765 21.27706,-8.021443 34.06087,-8.005292 12.31264,0.01555 21.96395,2.25347 32.94151,7.638371 22.37018,10.973393 37.39682,31.626489 41.30783,56.774785 0.79617,5.11949 0.79534,15.9921 -0.002,21.10227 -3.85606,24.72561 -18.47442,45.16303 -40.26726,56.29623 -7.45316,3.80755 -14.80416,6.17214 -23.26649,7.48409 -3.22218,0.49955 -14.07408,0.89288 -16.79057,0.60858 z m 15.09704,-14.37961 c 23.5428,-3.41112 43.52248,-21.12312 49.84616,-44.18866 1.58682,-5.78792 2.13411,-9.925 2.14464,-16.2119 0.0104,-6.20885 -0.33971,-9.22362 -1.72454,-14.84991 -7.71382,-31.339729 -38.98956,-51.557694 -70.49335,-45.569908 -12.20532,2.319812 -22.62536,7.713632 -31.44465,16.276984 -5.41925,5.261978 -8.962397,10.029013 -12.141901,16.336001 -15.204829,30.160873 -3.343495,66.705523 26.660281,82.140063 7.38313,3.79803 15.15246,5.92733 24.45497,6.70226 2.442,0.20343 9.26777,-0.13787 12.69839,-0.63493 z m -31.08807,-33.35563 c -3.31436,-0.8304 -5.38034,-3.41924 -5.38034,-6.74199 0,-1.04098 0.22956,-2.21514 0.56259,-2.87758 0.30943,-0.61549 4.25214,-4.82266 8.76159,-9.34928 8.19899,-8.23021 8.19899,-8.23021 -0.15327,-16.62603 -9.11473,-9.16225 -9.24888,-9.35088 -9.00895,-12.667009 0.24053,-3.324304 2.7379,-5.820978 6.06313,-6.061435 3.31694,-0.239859 3.50597,-0.105511 12.66767,9.003584 8.39528,8.34707 8.39528,8.34707 16.79057,0 9.16313,-9.110512 9.35372,-9.245937 12.6668,-9.000406 4.53107,0.335795 7.4063,5.166101 5.63132,9.460456 -0.32348,0.78264 -3.29991,4.00128 -8.7128,9.42181 -8.22147,8.23308 -8.22147,8.23308 0,16.46616 5.41289,5.42054 8.38932,8.63917 8.7128,9.42181 1.84725,4.46923 -1.41268,9.51085 -6.15521,9.51928 -0.92913,0.002 -2.22441,-0.21804 -2.87839,-0.4882 -0.78285,-0.32339 -4.00238,-3.29899 -9.42443,-8.71037 -8.23538,-8.21918 -8.23538,-8.21918 -16.47075,-0.0196 -4.52946,4.50977 -8.66714,8.41242 -9.19484,8.67256 -1.25337,0.61788 -3.27359,0.87788 -4.47749,0.57624 z"
       id="path1" />
  </g>
</svg>
