<?xml version="1.0" encoding="UTF-8" standalone="no"?>
<!-- Created with Inkscape (http://www.inkscape.org/) -->

<svg
   width="13.229162mm"
   height="13.22922mm"
   viewBox="0 0 13.229162 13.22922"
   version="1.1"
   id="svg1"
   xml:space="preserve"
   xmlns="http://www.w3.org/2000/svg"
   xmlns:svg="http://www.w3.org/2000/svg"><defs
     id="defs1"><linearGradient
       id="swatch13"><stop
         style="stop-color:#004780;stop-opacity:1;"
         offset="0"
         id="stop14" /></linearGradient><linearGradient
       id="swatch12"><stop
         style="stop-color:#004780;stop-opacity:1;"
         offset="0"
         id="stop13" /></linearGradient><linearGradient
       id="swatch11"><stop
         style="stop-color:#004780;stop-opacity:1;"
         offset="0"
         id="stop12" /></linearGradient></defs><g
     id="layer1"
     transform="translate(-50.834924,-19.093236)"><path
       style="fill:#15ca00;fill-opacity:1;stroke-width:0.54199"
       d="m 52.235323,32.278852 -0.182053,-0.0391 -0.23712,-0.117074 -0.23712,-0.117075 -0.213654,-0.213654 -0.213654,-0.213655 -0.116893,-0.237121 -0.116893,-0.237121 -0.04102,-0.196057 -0.04102,-0.196057 -4.87e-4,-4.385795 -4.86e-4,-4.385795 0.05392,-0.210838 0.05392,-0.210838 0.09312,-0.192758 0.09312,-0.192759 0.224064,-0.226813 0.224064,-0.226813 0.184887,-0.102363 0.184887,-0.102362 0.218708,-0.05594 0.218708,-0.05594 h 2.301777 2.301778 l 0.123439,0.06517 0.123439,0.06517 0.08318,0.118091 0.08318,0.118091 0.01075,0.190277 0.01075,0.190277 -0.05635,0.109604 -0.05635,0.109603 -0.07959,0.07554 -0.07959,0.07554 -0.104131,0.0435 -0.104131,0.0435 h -2.208034 -2.208036 l -0.142372,0.07095 -0.142373,0.07095 -0.07205,0.104103 -0.07205,0.104103 -0.02982,0.140041 -0.02982,0.140041 0.0077,4.229229 0.0077,4.229228 0.03313,0.07391 0.03313,0.07391 0.08607,0.09803 0.08607,0.09803 0.10486,0.05212 0.104859,0.05212 4.229213,0.0077 4.229215,0.0077 0.140039,-0.02982 0.140039,-0.02982 0.100089,-0.06927 0.100089,-0.06927 0.06796,-0.11865 0.06796,-0.118649 0.01398,-2.268659 0.01398,-2.268659 0.0465,-0.08403 0.0465,-0.08402 0.07952,-0.07383 0.07952,-0.07382 0.09528,-0.04813 0.09529,-0.04813 0.19059,0.01077 0.190596,0.01077 0.118088,0.08318 0.118094,0.08318 0.06516,0.12344 0.06517,0.123439 v 2.301786 2.301786 l -0.05593,0.218709 -0.05594,0.218709 -0.09931,0.177593 -0.09931,0.177592 -0.158358,0.171049 -0.158364,0.171048 -0.155523,0.105051 -0.155524,0.105049 -0.182048,0.07196 -0.182054,0.07196 -0.16619,0.03035 -0.16619,0.03034 -4.371112,-0.0022 -4.371112,-0.0022 z m 2.527771,-3.60043 -0.118988,-0.0589 -0.07431,-0.08812 -0.07431,-0.08812 -0.03777,-0.09013 -0.03777,-0.09013 v -0.113435 -0.113435 l 0.295081,-1.182841 0.29508,-1.182841 0.04112,-0.126565 0.04112,-0.126566 3.017765,-3.012729 3.017767,-3.01273 0.210058,-0.10007 0.210059,-0.10007 0.182054,-0.04885 0.182054,-0.04885 0.280078,-4.01e-4 0.280083,-4.02e-4 0.182049,0.04696 0.182054,0.04696 0.196053,0.09689 0.196059,0.09689 0.159388,0.12785 0.159394,0.12785 0.131752,0.174095 0.131752,0.174095 0.07902,0.168049 0.07902,0.168049 0.04764,0.182053 0.04764,0.182053 -4.01e-4,0.280081 -4.01e-4,0.280081 -0.04883,0.182053 -0.04883,0.182053 -0.100073,0.210061 -0.100067,0.210061 -3.012719,3.017776 -3.012719,3.017776 -0.126566,0.04112 -0.126565,0.04112 -1.182836,0.295081 -1.182837,0.295082 -0.119537,-2.2e-5 -0.119537,-2.2e-5 z m 1.755802,-1.55034 0.600517,-0.15141 2.808148,-2.809726 2.808146,-2.809726 0.05671,-0.126037 0.05672,-0.126036 v -0.140041 -0.14004 l -0.05714,-0.126037 -0.05714,-0.126037 -0.06128,-0.06673 -0.06128,-0.06672 -0.140039,-0.06604 -0.140044,-0.06604 -0.140039,3.42e-4 -0.140039,3.41e-4 -0.12604,0.05672 -0.126034,0.05672 -2.809715,2.808157 -2.809716,2.808156 -0.151409,0.600519 -0.15141,0.600519 -7.04e-4,0.02101 -7.05e-4,0.02101 0.02101,-7.05e-4 0.02101,-7.04e-4 z"
       id="path5" /></g></svg>
