<?xml version="1.0" encoding="UTF-8" standalone="no"?>
<!-- Created with Inkscape (http://www.inkscape.org/) -->

<svg
   version="1.1"
   id="svg1"
   width="150.00002"
   height="150"
   viewBox="0 0 150.00002 150"
   xmlns="http://www.w3.org/2000/svg"
   xmlns:svg="http://www.w3.org/2000/svg">
  <defs
     id="defs1" />
  <g
     id="g1"
     transform="translate(-42.809807,-42.687897)">
    <path
       style="fill:#008000;stroke-width:0.351658"
       d="M 112.70873,192.53094 C 94.307975,191.3086 77.244053,183.43692 64.27201,170.18681 58.364771,164.15294 53.995439,158.05879 50.562073,151.06478 c -5.397127,-10.99431 -7.752267,-21.13945 -7.752267,-33.39409 0,-12.20172 2.381888,-22.507646 7.693761,-33.289264 3.535142,-7.175354 7.835115,-13.182552 13.762645,-19.226859 9.561311,-9.749673 21.485259,-16.706217 34.418327,-20.079978 12.011991,-3.133486 25.758121,-3.183711 37.679421,-0.13767 26.64636,6.80848 47.66815,27.882279 54.27271,54.406993 1.63664,6.572918 2.17314,11.097408 2.17314,18.326778 0,12.21111 -2.35848,22.40648 -7.70075,33.28922 -8.31096,16.93023 -23.51346,30.58564 -41.39412,37.1816 -9.46078,3.48996 -20.66635,5.0763 -31.00621,4.38943 z M 89.298821,164.76496 c 5.161064,-0.56355 6.893018,-0.8907 8.443165,-1.59484 1.703356,-0.77373 6.030494,-4.96618 34.187154,-33.12299 31.11982,-31.119998 32.26359,-32.309893 33.00542,-34.336461 1.09796,-2.999461 1.03779,-6.283005 -0.16315,-8.904118 -1.33319,-2.909729 -12.77157,-14.402512 -15.84264,-15.917989 -3.12644,-1.542797 -6.88296,-1.50033 -10.18695,0.115168 -0.92678,0.453154 -12.3618,11.626682 -33.495,32.72906 -28.196235,28.15512 -32.196529,32.28017 -32.984326,34.01296 -0.702675,1.54558 -1.052514,3.3317 -1.617963,8.26065 -0.993817,8.66299 -0.967059,10.51783 0.188177,13.04393 0.511269,1.11798 1.435517,2.5609 2.053881,3.2065 2.078091,2.16962 6.015621,3.65082 8.863867,3.33437 0.580467,-0.0645 3.977233,-0.4363 7.548365,-0.82624 z m -10.073934,-6.88542 c -0.615102,-0.3031 -1.369429,-1.07974 -1.676278,-1.72585 -0.514629,-1.08364 -0.501894,-1.68198 0.164156,-7.71344 0.397135,-3.59627 0.862202,-6.88923 1.033482,-7.3177 0.17128,-0.42846 11.366573,-11.8127 24.878423,-25.29829 l 24.567,-24.519267 8.00058,7.999844 8.00058,7.999843 -24.71292,24.67309 c -15.5682,15.54312 -25.038354,24.74616 -25.592405,24.87057 -0.69433,0.1559 -13.100422,1.6222 -13.455232,1.59029 -0.04896,-0.004 -0.592281,-0.25599 -1.207386,-0.55909 z m 62.056073,-63.683933 -8.00666,-8.005929 4.49429,-4.443345 c 4.48055,-4.429762 5.58696,-5.148632 7.19227,-4.673057 0.44931,0.133108 3.62685,3.032507 7.0612,6.443099 6.70246,6.656111 7.18961,7.405225 6.12428,9.417554 -0.2939,0.555154 -2.40734,2.867477 -4.69654,5.13849 l -4.16217,4.129121 z"
       id="path1" />
  </g>
</svg>
