<?xml version="1.0" encoding="UTF-8" standalone="no"?>
<!-- Created with Inkscape (http://www.inkscape.org/) -->

<svg
   width="13.229146mm"
   height="13.229175mm"
   viewBox="0 0 13.229146 13.229175"
   version="1.1"
   id="svg1"
   xml:space="preserve"
   inkscape:version="1.3.2 (091e20e, 2023-11-25, custom)"
   sodipodi:docname="drawing.svg"
   xmlns:inkscape="http://www.inkscape.org/namespaces/inkscape"
   xmlns:sodipodi="http://sodipodi.sourceforge.net/DTD/sodipodi-0.dtd"
   xmlns="http://www.w3.org/2000/svg"
   xmlns:svg="http://www.w3.org/2000/svg"><sodipodi:namedview
     id="namedview1"
     pagecolor="#ffffff"
     bordercolor="#000000"
     borderopacity="0.25"
     inkscape:showpageshadow="2"
     inkscape:pageopacity="0.0"
     inkscape:pagecheckerboard="0"
     inkscape:deskcolor="#d1d1d1"
     inkscape:document-units="mm"
     inkscape:zoom="0.73139029"
     inkscape:cx="396.50513"
     inkscape:cy="561.25984"
     inkscape:window-width="1920"
     inkscape:window-height="1017"
     inkscape:window-x="-8"
     inkscape:window-y="-8"
     inkscape:window-maximized="1"
     inkscape:current-layer="layer1" /><defs
     id="defs1" /><g
     inkscape:label="Layer 1"
     inkscape:groupmode="layer"
     id="layer1"
     transform="translate(-42.99809,-50.776236)"><path
       style="fill:#0000ff;stroke-width:0.318283"
       d="M 46.397401,63.983273 C 44.762617,63.740715 43.490292,62.561692 43.07912,60.908334 43.0148,60.649726 43.01316,60.577428 43.00253,57.534999 42.99044,54.07661 42.9884,54.11862 43.197386,53.487884 c 0.202792,-0.612065 0.493461,-1.079854 0.962631,-1.5492 0.607482,-0.607713 1.329058,-0.978569 2.175241,-1.117969 0.277273,-0.04568 0.645443,-0.05 3.418164,-0.0401 3.035685,0.01084 3.113516,0.0126 3.371551,0.07657 1.551085,0.384479 2.637626,1.471648 3.022919,3.024667 0.06407,0.258258 0.06581,0.334295 0.07655,3.342244 0.0074,2.090758 2e-4,3.159942 -0.02266,3.333542 -0.09485,0.720967 -0.366443,1.364106 -0.824247,1.951867 -0.55417,0.711483 -1.309787,1.188934 -2.252581,1.423334 -0.259142,0.06443 -0.323413,0.06579 -3.402627,0.07189 -1.726174,0.0034 -3.222395,-0.0062 -3.324941,-0.02146 z m 3.421238,-2.823276 c 0.07006,-0.03184 0.160946,-0.104975 0.201981,-0.162543 l 0.07461,-0.104666 0.0084,-2.139904 c 0.0083,-2.115428 0.0077,-2.141216 -0.05603,-2.254605 -0.097,-0.172681 -0.23486,-0.253542 -0.432265,-0.253542 -0.206308,0 -0.352906,0.08422 -0.438378,0.251846 -0.06017,0.11801 -0.06158,0.177764 -0.05341,2.258711 l 0.0084,2.137494 0.07461,0.104666 c 0.07987,0.112044 0.280003,0.220419 0.407038,0.220419 0.04273,0 0.135003,-0.02604 0.205058,-0.05788 z m 0.05934,-5.81269 c 0.133713,-0.06078 0.311978,-0.243038 0.359168,-0.367218 0.05427,-0.142832 0.03342,-0.420257 -0.04144,-0.551198 -0.152736,-0.267172 -0.456917,-0.406534 -0.729732,-0.334331 -0.304301,0.08053 -0.503573,0.330387 -0.504445,0.632485 -6.35e-4,0.217789 0.03669,0.321364 0.164535,0.456635 0.200313,0.21195 0.501429,0.277478 0.75191,0.163627 z"
       id="path1"
       inkscape:export-filename="..\..\Users\jamir\Downloads\infoblue.svg"
       inkscape:export-xdpi="96"
       inkscape:export-ydpi="96" /></g></svg>
