<?xml version="1.0" encoding="UTF-8" standalone="no"?>
<!-- Created with Inkscape (http://www.inkscape.org/) -->

<svg
   width="50mm"
   height="50.000008mm"
   viewBox="0 0 50 50.000008"
   version="1.1"
   id="svg1"
   xml:space="preserve"
   xmlns="http://www.w3.org/2000/svg"
   xmlns:svg="http://www.w3.org/2000/svg"><defs
     id="defs1"><linearGradient
       id="swatch13"><stop
         style="stop-color:#004780;stop-opacity:1;"
         offset="0"
         id="stop14" /></linearGradient><linearGradient
       id="swatch12"><stop
         style="stop-color:#004780;stop-opacity:1;"
         offset="0"
         id="stop13" /></linearGradient><linearGradient
       id="swatch11"><stop
         style="stop-color:#004780;stop-opacity:1;"
         offset="0"
         id="stop12" /></linearGradient></defs><g
     id="layer1"
     transform="translate(-42.998086,-50.77624)"><path
       style="fill:#ff6aff;fill-opacity:0.823529;stroke-width:1.20296"
       d="M 55.845893,100.69259 C 49.667182,99.775832 44.858392,95.319685 43.304358,89.070769 43.061279,88.093355 43.055073,87.820102 43.014869,76.321158 c -0.0457,-13.071079 -0.0534,-12.912301 0.736464,-15.296183 0.766458,-2.313317 1.86505,-4.081338 3.638291,-5.855245 2.295994,-2.296869 5.023209,-3.698528 8.22138,-4.225396 1.047962,-0.172642 2.43947,-0.188966 12.919046,-0.151553 11.473454,0.04096 11.767621,0.04764 12.74287,0.289382 5.862367,1.45315 9.968981,5.562133 11.425204,11.431812 0.242164,0.976095 0.248743,1.263476 0.28932,12.632103 0.02814,7.902078 7.58e-4,11.943091 -0.08563,12.599216 -0.358497,2.724915 -1.384979,5.155675 -3.115261,7.377137 -2.094503,2.689069 -4.950377,4.493606 -8.513695,5.379529 -0.979434,0.24351 -1.222345,0.24864 -12.86032,0.27169 -6.524123,0.0129 -12.179131,-0.0236 -12.566707,-0.0811 z M 68.776556,90.021939 c 0.264775,-0.120329 0.608298,-0.396758 0.763391,-0.614336 l 0.281997,-0.39559 0.03175,-8.087826 c 0.03139,-7.995318 0.02898,-8.092786 -0.211786,-8.521343 -0.366615,-0.652652 -0.887661,-0.958266 -1.633758,-0.958266 -0.779747,0 -1.333818,0.318309 -1.656861,0.951858 -0.22742,0.446022 -0.23276,0.671864 -0.201876,8.536861 l 0.03175,8.078716 0.281997,0.39559 c 0.301864,0.423471 1.058279,0.83308 1.538412,0.83308 0.161491,0 0.510246,-0.09843 0.77502,-0.218744 z m 0.224282,-21.969225 c 0.505375,-0.22971 1.179133,-0.918568 1.357486,-1.387911 0.205135,-0.539836 0.126313,-1.588372 -0.156609,-2.083268 -0.57727,-1.009785 -1.726927,-1.536505 -2.758039,-1.263611 -1.150114,0.304383 -1.90327,1.248706 -1.906565,2.390493 -0.0024,0.82314 0.138665,1.214605 0.621863,1.725864 0.75709,0.801073 1.895165,1.048736 2.841864,0.618433 z"
       id="path1" /></g></svg>
