<?xml version="1.0" encoding="UTF-8" standalone="no"?>
<!-- Created with Inkscape (http://www.inkscape.org/) -->

<svg
   width="13.229166mm"
   height="13.229167mm"
   viewBox="0 0 13.229166 13.229167"
   version="1.1"
   id="svg1"
   xml:space="preserve"
   xmlns="http://www.w3.org/2000/svg"
   xmlns:svg="http://www.w3.org/2000/svg"><defs
     id="defs1" /><g
     id="layer1"
     transform="translate(-40.456555,-107.56191)"><path
       style="fill:#0000ff;stroke-width:0.318042"
       d="m 43.825773,120.74853 c -1.527417,-0.24014 -2.805151,-1.36109 -3.21546,-2.82091 -0.150017,-0.53374 -0.15376,-0.62501 -0.15376,-3.74998 0,-3.12497 0.0038,-3.21624 0.15376,-3.74998 0.358097,-1.27406 1.438713,-2.35402 2.714406,-2.71277 0.530283,-0.14913 0.624647,-0.15298 3.746417,-0.15298 3.124429,0 3.215686,0.004 3.749334,0.15379 1.273835,0.35816 2.353612,1.43896 2.712297,2.71487 0.149102,0.53038 0.152953,0.62476 0.152953,3.74707 0,3.12231 -0.0038,3.21669 -0.152953,3.74707 -0.358685,1.27591 -1.438462,2.35672 -2.712297,2.71488 -0.53575,0.15063 -0.619489,0.15397 -3.780391,0.15089 -2.217467,-0.002 -3.028547,-0.0127 -3.214306,-0.0419 z m 3.527779,-3.51065 c 0.211976,-0.13826 0.214482,-0.15493 0.214482,-1.42644 v -1.13681 h 1.136619 c 1.279248,0 1.286037,-9.6e-4 1.434254,-0.22508 0.111077,-0.16788 0.111077,-0.37594 0,-0.54382 -0.148217,-0.22401 -0.155006,-0.22507 -1.434254,-0.22507 h -1.136619 v -1.13499 c 0,-1.06771 -0.0036,-1.14208 -0.06115,-1.25485 -0.130952,-0.25674 -0.464622,-0.34231 -0.707611,-0.18148 -0.223971,0.14824 -0.225036,0.15503 -0.225036,1.4345 v 1.13682 H 45.43762 c -1.279248,0 -1.286038,9.5e-4 -1.434255,0.22507 -0.160801,0.24303 -0.07524,0.57676 0.181447,0.70774 0.112752,0.0575 0.187116,0.0612 1.254643,0.0612 h 1.134784 v 1.13681 c 0,1.25063 0.004,1.28039 0.191451,1.41387 0.192456,0.13706 0.390496,0.1413 0.587862,0.0126 z"
       id="path2" /></g></svg>
