<?xml version="1.0" encoding="UTF-8" standalone="no"?>
<!-- Created with Inkscape (http://www.inkscape.org/) -->

<svg
   width="13.229142mm"
   height="13.229167mm"
   viewBox="0 0 13.229142 13.229167"
   version="1.1"
   id="svg1"
   xml:space="preserve"
   inkscape:version="1.3.2 (091e20e, 2023-11-25, custom)"
   sodipodi:docname="drawing.svg"
   inkscape:export-filename="..\..\Users\jamir\Downloads\reloadgrey.svg"
   inkscape:export-xdpi="96"
   inkscape:export-ydpi="96"
   xmlns:inkscape="http://www.inkscape.org/namespaces/inkscape"
   xmlns:sodipodi="http://sodipodi.sourceforge.net/DTD/sodipodi-0.dtd"
   xmlns="http://www.w3.org/2000/svg"
   xmlns:svg="http://www.w3.org/2000/svg"><sodipodi:namedview
     id="namedview1"
     pagecolor="#ffffff"
     bordercolor="#000000"
     borderopacity="0.25"
     inkscape:showpageshadow="false"
     inkscape:pageopacity="0.0"
     inkscape:pagecheckerboard="0"
     inkscape:deskcolor="#d1d1d1"
     inkscape:document-units="mm"
     inkscape:zoom="0.40727392"
     inkscape:cx="1377.4513"
     inkscape:cy="887.60902"
     inkscape:window-width="1920"
     inkscape:window-height="1017"
     inkscape:window-x="-8"
     inkscape:window-y="-8"
     inkscape:window-maximized="1"
     inkscape:current-layer="layer1"
     showgrid="true"
     showborder="true"
     borderlayer="false"><inkscape:grid
       id="grid4"
       units="mm"
       originx="427.24738"
       originy="-5.5876647"
       spacingx="0.99999998"
       spacingy="1"
       empcolor="#0099e5"
       empopacity="0.30196078"
       color="#0099e5"
       opacity="0.14901961"
       empspacing="5"
       dotted="false"
       gridanglex="30"
       gridanglez="30"
       visible="true" /></sodipodi:namedview><defs
     id="defs1"><linearGradient
       id="swatch13"
       inkscape:swatch="solid"><stop
         style="stop-color:#004780;stop-opacity:1;"
         offset="0"
         id="stop14" /></linearGradient><linearGradient
       id="swatch12"
       inkscape:swatch="solid"><stop
         style="stop-color:#004780;stop-opacity:1;"
         offset="0"
         id="stop13" /></linearGradient><linearGradient
       id="swatch11"
       inkscape:swatch="solid"><stop
         style="stop-color:#004780;stop-opacity:1;"
         offset="0"
         id="stop12" /></linearGradient></defs><g
     inkscape:label="Layer 1"
     inkscape:groupmode="layer"
     id="layer1"
     transform="translate(427.24736,-5.5876678)"><path
       d="m -425.92444,18.816839 q -0.5457,0 -0.93432,-0.388122 -0.3886,-0.388123 -0.3886,-0.933145 V 8.2467243 q 0,-0.545022 0.3886,-0.933142 0.38862,-0.38812 0.93432,-0.38812 h 5.90351 l -1.32292,1.321262 h -4.58059 v 9.2488477 h 9.2604 v -4.591391 l 1.32292,-1.321265 v 5.912656 q 0,0.545022 -0.38861,0.933147 -0.3886,0.388123 -0.93431,0.388123 z m 4.6302,-5.945688 z m -1.98438,1.981894 v -2.807684 l 6.06888,-6.0613007 q 0.19842,-0.198203 0.44648,-0.297285 0.24806,-0.0991 0.4961,-0.0991 0.26458,0 0.50436,0.0991 0.23977,0.0991 0.43822,0.297285 l 0.92604,0.941402 q 0.1819,0.198175 0.28112,0.43767 0.0992,0.239472 0.0992,0.487215 0,0.247742 -0.0909,0.487217 -0.0909,0.239473 -0.28939,0.437668 l -6.06888,6.0778127 z m 7.95404,-7.0026977 -0.92605,-0.924885 z m -6.63112,5.6814377 h 0.92604 l 3.83646,-3.831666 -0.46302,-0.4624467 -0.47956,-0.46244 -3.81992,3.8151487 z m 4.29948,-4.2941107 -0.47956,-0.46244 0.47956,0.46244 0.46302,0.4624447 z"
       id="path22"
       style="fill:#65b741;fill-opacity:1;stroke-width:0.0165261" /></g></svg>
