<?xml version="1.0" encoding="UTF-8" standalone="no"?>
<!-- Created with Inkscape (http://www.inkscape.org/) -->

<svg
   width="13.229172mm"
   height="13.229172mm"
   viewBox="0 0 13.229172 13.229172"
   version="1.1"
   id="svg1"
   xml:space="preserve"
   inkscape:version="1.3.2 (091e20e, 2023-11-25, custom)"
   sodipodi:docname="drawing.svg"
   inkscape:export-filename="..\..\Users\jamir\Downloads\reloadgrey.svg"
   inkscape:export-xdpi="96"
   inkscape:export-ydpi="96"
   xmlns:inkscape="http://www.inkscape.org/namespaces/inkscape"
   xmlns:sodipodi="http://sodipodi.sourceforge.net/DTD/sodipodi-0.dtd"
   xmlns="http://www.w3.org/2000/svg"
   xmlns:svg="http://www.w3.org/2000/svg"><sodipodi:namedview
     id="namedview1"
     pagecolor="#ffffff"
     bordercolor="#000000"
     borderopacity="0.25"
     inkscape:showpageshadow="false"
     inkscape:pageopacity="0.0"
     inkscape:pagecheckerboard="0"
     inkscape:deskcolor="#d1d1d1"
     inkscape:document-units="mm"
     inkscape:zoom="0.82"
     inkscape:cx="543.90244"
     inkscape:cy="477.43902"
     inkscape:window-width="1920"
     inkscape:window-height="1017"
     inkscape:window-x="-8"
     inkscape:window-y="-8"
     inkscape:window-maximized="1"
     inkscape:current-layer="layer1"
     showgrid="true"
     showborder="true"
     borderlayer="false"><inkscape:grid
       id="grid4"
       units="mm"
       originx="543.66193"
       originy="222.08838"
       spacingx="0.99999998"
       spacingy="1"
       empcolor="#0099e5"
       empopacity="0.30196078"
       color="#0099e5"
       opacity="0.14901961"
       empspacing="5"
       dotted="false"
       gridanglex="30"
       gridanglez="30"
       visible="true" /></sodipodi:namedview><defs
     id="defs1"><linearGradient
       id="swatch13"
       inkscape:swatch="solid"><stop
         style="stop-color:#004780;stop-opacity:1;"
         offset="0"
         id="stop14" /></linearGradient><linearGradient
       id="swatch12"
       inkscape:swatch="solid"><stop
         style="stop-color:#004780;stop-opacity:1;"
         offset="0"
         id="stop13" /></linearGradient><linearGradient
       id="swatch11"
       inkscape:swatch="solid"><stop
         style="stop-color:#004780;stop-opacity:1;"
         offset="0"
         id="stop12" /></linearGradient></defs><g
     inkscape:label="Layer 1"
     inkscape:groupmode="layer"
     id="layer1"
     transform="translate(326.25186,-8.228186)"><path
       d="m -319.63727,18.150059 q 0.2811,0 0.47128,-0.19025 0.19025,-0.19025 0.19025,-0.471275 0,-0.281124 -0.19025,-0.471299 -0.19025,-0.19025 -0.47128,-0.19025 -0.28112,0 -0.4713,0.19025 -0.19024,0.19025 -0.19024,0.471299 0,0.281125 0.19024,0.471275 0.19025,0.19025 0.4713,0.19025 z m -0.66147,-2.645824 h 1.32292 v -3.968748 h -1.32292 z m 0.66147,5.953122 q -1.37252,0 -2.57969,-0.5209 -1.20715,-0.5209 -2.10013,-1.413874 -0.89297,-0.892975 -1.41387,-2.100123 -0.5209,-1.20715 -0.5209,-2.5797 0,-1.372523 0.5209,-2.579673 0.5209,-1.20715 1.41387,-2.100122 0.89298,-0.8929746 2.10013,-1.4138746 1.20717,-0.5209 2.57969,-0.5209 1.37253,0 2.57968,0.5209 1.20717,0.5209 2.10012,1.4138746 0.89298,0.892972 1.41388,2.100122 0.5209,1.20715 0.5209,2.579673 0,1.37255 -0.5209,2.5797 -0.5209,1.207148 -1.41388,2.100123 -0.89295,0.892974 -2.10012,1.413874 -1.20715,0.5209 -2.57968,0.5209 z m 0,-1.322925 q 2.21588,0 3.75378,-1.537874 1.53787,-1.537898 1.53787,-3.753798 0,-2.215873 -1.53787,-3.753773 -1.5379,-1.5378716 -3.75378,-1.5378716 -2.21589,0 -3.75377,1.5378716 -1.5379,1.5379 -1.5379,3.753773 0,2.2159 1.5379,3.753798 1.53788,1.537874 3.75377,1.537874 z m 0,-5.291672 z"
       id="path364"
       style="fill:#ff0000;stroke-width:0.0165365" /></g></svg>
