<?xml version="1.0" encoding="UTF-8" standalone="no"?>
<!-- Created with Inkscape (http://www.inkscape.org/) -->

<svg
   width="13.229171mm"
   height="13.229167mm"
   viewBox="0 0 13.229171 13.229167"
   version="1.1"
   id="svg1"
   xml:space="preserve"
   inkscape:version="1.3.2 (091e20e, 2023-11-25, custom)"
   sodipodi:docname="drawing.svg"
   inkscape:export-filename="..\..\Users\jamir\Downloads\reloadgrey.svg"
   inkscape:export-xdpi="96"
   inkscape:export-ydpi="96"
   xmlns:inkscape="http://www.inkscape.org/namespaces/inkscape"
   xmlns:sodipodi="http://sodipodi.sourceforge.net/DTD/sodipodi-0.dtd"
   xmlns="http://www.w3.org/2000/svg"
   xmlns:svg="http://www.w3.org/2000/svg"><sodipodi:namedview
     id="namedview1"
     pagecolor="#ffffff"
     bordercolor="#000000"
     borderopacity="0.25"
     inkscape:showpageshadow="false"
     inkscape:pageopacity="0.0"
     inkscape:pagecheckerboard="0"
     inkscape:deskcolor="#d1d1d1"
     inkscape:document-units="mm"
     inkscape:zoom="0.40727392"
     inkscape:cx="1377.4513"
     inkscape:cy="887.60902"
     inkscape:window-width="1920"
     inkscape:window-height="1017"
     inkscape:window-x="-8"
     inkscape:window-y="-8"
     inkscape:window-maximized="1"
     inkscape:current-layer="layer1"
     showgrid="true"
     showborder="true"
     borderlayer="false"><inkscape:grid
       id="grid4"
       units="mm"
       originx="509.98471"
       originy="-5.5876647"
       spacingx="0.99999998"
       spacingy="1"
       empcolor="#0099e5"
       empopacity="0.30196078"
       color="#0099e5"
       opacity="0.14901961"
       empspacing="5"
       dotted="false"
       gridanglex="30"
       gridanglez="30"
       visible="true" /></sodipodi:namedview><defs
     id="defs1"><linearGradient
       id="swatch13"
       inkscape:swatch="solid"><stop
         style="stop-color:#004780;stop-opacity:1;"
         offset="0"
         id="stop14" /></linearGradient><linearGradient
       id="swatch12"
       inkscape:swatch="solid"><stop
         style="stop-color:#004780;stop-opacity:1;"
         offset="0"
         id="stop13" /></linearGradient><linearGradient
       id="swatch11"
       inkscape:swatch="solid"><stop
         style="stop-color:#004780;stop-opacity:1;"
         offset="0"
         id="stop12" /></linearGradient></defs><g
     inkscape:label="Layer 1"
     inkscape:groupmode="layer"
     id="layer1"
     transform="translate(509.98469,-5.5876678)"><path
       id="path18"
       style="opacity:1;fill:#5dcae5;fill-opacity:1;stroke-width:0.0714451;paint-order:fill markers stroke"
       d="m -506.06288,5.5876749 c -2.17266,0 -3.92181,1.7614069 -3.92181,3.9493717 V 14.86747 c 0,2.187965 1.74915,3.949372 3.92181,3.949372 h 5.38555 c 2.17266,0 3.92181,-1.761407 3.92181,-3.949372 V 9.5370466 c 0,-2.1879648 -1.74915,-3.9493717 -3.92181,-3.9493717 z m 2.69277,2.2048603 c 0.24254,0 0.45016,0.095935 0.62288,0.2878383 0.17271,0.1919055 0.25907,0.4226371 0.25907,0.6921203 0,0.2694841 -0.0864,0.5001305 -0.25907,0.6920335 -0.17272,0.1919055 -0.38034,0.2878378 -0.62288,0.2878378 -0.24253,0 -0.45016,-0.095932 -0.62287,-0.2878378 -0.17271,-0.191903 -0.25907,-0.4225494 -0.25907,-0.6920335 0,-0.2694832 0.0864,-0.5002148 0.25907,-0.6921203 0.17271,-0.1919033 0.38034,-0.2878383 0.62287,-0.2878383 z m -0.66146,2.9397868 h 1.32292 v 5.879658 h -1.32292 z" /></g></svg>
