<?xml version="1.0" encoding="UTF-8" standalone="no"?>
<!-- Created with Inkscape (http://www.inkscape.org/) -->

<svg
   width="13.229167mm"
   height="13.229167mm"
   viewBox="0 0 13.229167 13.229167"
   version="1.1"
   id="svg1"
   xml:space="preserve"
   inkscape:version="1.3.2 (091e20e, 2023-11-25, custom)"
   sodipodi:docname="drawing.svg"
   inkscape:export-filename="..\..\Users\jamir\Downloads\reloadgrey.svg"
   inkscape:export-xdpi="96"
   inkscape:export-ydpi="96"
   xmlns:inkscape="http://www.inkscape.org/namespaces/inkscape"
   xmlns:sodipodi="http://sodipodi.sourceforge.net/DTD/sodipodi-0.dtd"
   xmlns="http://www.w3.org/2000/svg"
   xmlns:svg="http://www.w3.org/2000/svg"><sodipodi:namedview
     id="namedview1"
     pagecolor="#ffffff"
     bordercolor="#000000"
     borderopacity="0.25"
     inkscape:showpageshadow="false"
     inkscape:pageopacity="0.0"
     inkscape:pagecheckerboard="0"
     inkscape:deskcolor="#d1d1d1"
     inkscape:document-units="mm"
     inkscape:zoom="0.43852551"
     inkscape:cx="712.61533"
     inkscape:cy="954.33446"
     inkscape:window-width="1920"
     inkscape:window-height="1017"
     inkscape:window-x="-8"
     inkscape:window-y="-8"
     inkscape:window-maximized="1"
     inkscape:current-layer="layer1"
     showgrid="true"
     showborder="true"
     borderlayer="false"><inkscape:grid
       id="grid4"
       units="mm"
       originx="489.30037"
       originy="-7.2422667"
       spacingx="0.99999998"
       spacingy="1"
       empcolor="#0099e5"
       empopacity="0.30196078"
       color="#0099e5"
       opacity="0.14901961"
       empspacing="5"
       dotted="false"
       gridanglex="30"
       gridanglez="30"
       visible="true" /></sodipodi:namedview><defs
     id="defs1"><linearGradient
       id="swatch13"
       inkscape:swatch="solid"><stop
         style="stop-color:#004780;stop-opacity:1;"
         offset="0"
         id="stop14" /></linearGradient><linearGradient
       id="swatch12"
       inkscape:swatch="solid"><stop
         style="stop-color:#004780;stop-opacity:1;"
         offset="0"
         id="stop13" /></linearGradient><linearGradient
       id="swatch11"
       inkscape:swatch="solid"><stop
         style="stop-color:#004780;stop-opacity:1;"
         offset="0"
         id="stop12" /></linearGradient></defs><g
     inkscape:label="Layer 1"
     inkscape:groupmode="layer"
     id="layer1"
     transform="translate(489.30036,-7.2422699)"><path
       id="path35"
       style="opacity:1;fill:#71c962;fill-opacity:1;stroke-width:0.0714451;paint-order:fill markers stroke"
       d="m -485.37855,7.2422725 c -2.17266,0 -3.92181,1.761407 -3.92181,3.9493705 v 5.330337 c 0,2.187965 1.74915,3.949459 3.92181,3.949459 h 5.38563 c 2.17266,0 3.92173,-1.761494 3.92173,-3.949459 v -5.330337 c 0,-2.1879635 -1.74907,-3.9493705 -3.92173,-3.9493705 z m 5.08746,2.204861 h 0.91924 c 0.29577,0 0.56401,0.111676 0.77411,0.321772 0.2101,0.210096 0.32169,0.4782535 0.32169,0.7740265 v 6.627847 c 0,0.295771 -0.11159,0.563843 -0.32169,0.77394 -0.2101,0.210096 -0.47834,0.321858 -0.77411,0.321858 h -0.89323 a 0.14913878,0.14913875 0 0 1 -0.14909,-0.149172 v -0.946626 a 0.14913878,0.14913875 0 0 1 0.14909,-0.149174 h 0.74388 v -6.329673 h -0.76989 a 0.14913878,0.14913875 0 0 1 -0.14952,-0.149 V 9.5962205 a 0.14913878,0.14913875 0 0 1 0.14952,-0.149087 z m -3.34347,1.8934245 a 0.14913878,0.14913875 0 0 1 0.10732,0.04367 l 2.36704,2.367125 a 0.14913878,0.14913875 0 0 1 0,0.211012 l -2.36704,2.367124 a 0.14913878,0.14913875 0 0 1 -0.21351,-0.0028 l -0.65112,-0.686606 a 0.14913878,0.14913875 0 0 1 0.003,-0.207912 l 0.9524,-0.952655 h -3.50969 a 0.14913878,0.14913875 0 0 1 -0.14918,-0.149173 v -0.94697 a 0.14913878,0.14913875 0 0 1 0.14918,-0.149087 h 3.50969 l -0.9524,-0.952655 a 0.14913878,0.14913875 0 0 1 -0.003,-0.207911 l 0.65112,-0.686608 a 0.14913878,0.14913875 0 0 1 0.10619,-0.04651 z" /></g></svg>
