<?xml version="1.0" encoding="UTF-8" standalone="no"?>
<!-- Created with Inkscape (http://www.inkscape.org/) -->

<svg
   width="13.229167mm"
   height="13.229167mm"
   viewBox="0 0 13.229167 13.229167"
   version="1.1"
   id="svg1"
   xml:space="preserve"
   inkscape:version="1.3.2 (091e20e, 2023-11-25, custom)"
   sodipodi:docname="drawing.svg"
   inkscape:export-filename="..\..\Users\jamir\Downloads\reloadgrey.svg"
   inkscape:export-xdpi="96"
   inkscape:export-ydpi="96"
   xmlns:inkscape="http://www.inkscape.org/namespaces/inkscape"
   xmlns:sodipodi="http://sodipodi.sourceforge.net/DTD/sodipodi-0.dtd"
   xmlns="http://www.w3.org/2000/svg"
   xmlns:svg="http://www.w3.org/2000/svg"><sodipodi:namedview
     id="namedview1"
     pagecolor="#ffffff"
     bordercolor="#000000"
     borderopacity="0.25"
     inkscape:showpageshadow="false"
     inkscape:pageopacity="0.0"
     inkscape:pagecheckerboard="0"
     inkscape:deskcolor="#d1d1d1"
     inkscape:document-units="mm"
     inkscape:zoom="0.43852551"
     inkscape:cx="712.61533"
     inkscape:cy="954.33446"
     inkscape:window-width="1920"
     inkscape:window-height="1017"
     inkscape:window-x="-8"
     inkscape:window-y="-8"
     inkscape:window-maximized="1"
     inkscape:current-layer="layer1"
     showgrid="true"
     showborder="true"
     borderlayer="false"><inkscape:grid
       id="grid4"
       units="mm"
       originx="468.61605"
       originy="-7.2422667"
       spacingx="0.99999998"
       spacingy="1"
       empcolor="#0099e5"
       empopacity="0.30196078"
       color="#0099e5"
       opacity="0.14901961"
       empspacing="5"
       dotted="false"
       gridanglex="30"
       gridanglez="30"
       visible="true" /></sodipodi:namedview><defs
     id="defs1"><linearGradient
       id="swatch13"
       inkscape:swatch="solid"><stop
         style="stop-color:#004780;stop-opacity:1;"
         offset="0"
         id="stop14" /></linearGradient><linearGradient
       id="swatch12"
       inkscape:swatch="solid"><stop
         style="stop-color:#004780;stop-opacity:1;"
         offset="0"
         id="stop13" /></linearGradient><linearGradient
       id="swatch11"
       inkscape:swatch="solid"><stop
         style="stop-color:#004780;stop-opacity:1;"
         offset="0"
         id="stop12" /></linearGradient></defs><g
     inkscape:label="Layer 1"
     inkscape:groupmode="layer"
     id="layer1"
     transform="translate(468.61603,-7.2422699)"><path
       id="path36"
       style="opacity:1;fill:#ea9e4b;fill-opacity:1;stroke-width:0.0714451;paint-order:fill markers stroke"
       d="m -464.69431,7.2422725 c -2.17266,0 -3.92172,1.7614927 -3.92172,3.9494565 v 5.330338 c 0,2.187965 1.74906,3.949372 3.92172,3.949372 h 5.38563 c 2.17267,0 3.92182,-1.761407 3.92182,-3.949372 v -5.330338 c 0,-2.1879638 -1.74915,-3.9494565 -3.92182,-3.9494565 z m -0.6208,2.2048607 h 1.02465 a 0.14913361,0.14913875 0 0 1 0.14909,0.149173 v 0.9466258 a 0.14913361,0.14913875 0 0 1 -0.14909,0.149086 h -0.87557 v 6.329674 h 0.87557 a 0.14913361,0.14913875 0 0 1 0.14909,0.149087 v 0.946711 a 0.14913361,0.14913875 0 0 1 -0.14909,0.149087 h -1.02465 c -0.29576,0 -0.5642,-0.111677 -0.77429,-0.321772 -0.2101,-0.210098 -0.32177,-0.478253 -0.32177,-0.774026 v -6.627847 c 0,-0.295773 0.11167,-0.5638448 0.32177,-0.7739408 0.21009,-0.210098 0.47853,-0.321858 0.77429,-0.321858 z m 5.20545,1.8934238 a 0.14913361,0.14913875 0 0 1 0.10723,0.04375 l 2.36695,2.367039 a 0.14913361,0.14913875 0 0 1 0,0.211012 l -2.36695,2.367124 a 0.14913361,0.14913875 0 0 1 -0.2136,-0.0028 l -0.65095,-0.686606 a 0.14913361,0.14913875 0 0 1 0.003,-0.207912 l 0.95231,-0.952655 h -3.50969 a 0.14913361,0.14913875 0 0 1 -0.14934,-0.149087 v -0.94697 a 0.14913361,0.14913875 0 0 1 0.14934,-0.149173 h 3.50969 l -0.95231,-0.952655 a 0.14913361,0.14913875 0 0 1 -0.003,-0.207911 l 0.65095,-0.686608 a 0.14913361,0.14913875 0 0 1 0.10637,-0.04651 z" /></g></svg>
