<?xml version="1.0" encoding="UTF-8" standalone="no"?>
<!-- Created with Inkscape (http://www.inkscape.org/) -->

<svg
   width="13.229172mm"
   height="13.229172mm"
   viewBox="0 0 13.229172 13.229172"
   version="1.1"
   id="svg1"
   xml:space="preserve"
   inkscape:version="1.2.1 (9c6d41e410, 2022-07-14)"
   sodipodi:docname="drawing.svg"
   inkscape:export-filename="..\..\Users\jamir\Downloads\reloadgrey.svg"
   inkscape:export-xdpi="96"
   inkscape:export-ydpi="96"
   xmlns:inkscape="http://www.inkscape.org/namespaces/inkscape"
   xmlns:sodipodi="http://sodipodi.sourceforge.net/DTD/sodipodi-0.dtd"
   xmlns="http://www.w3.org/2000/svg"
   xmlns:svg="http://www.w3.org/2000/svg"><sodipodi:namedview
     id="namedview1"
     pagecolor="#ffffff"
     bordercolor="#000000"
     borderopacity="0.25"
     inkscape:showpageshadow="false"
     inkscape:pageopacity="0.0"
     inkscape:pagecheckerboard="0"
     inkscape:deskcolor="#d1d1d1"
     inkscape:document-units="mm"
     inkscape:zoom="0.41053452"
     inkscape:cx="1549.1998"
     inkscape:cy="1164.3357"
     inkscape:window-width="1280"
     inkscape:window-height="737"
     inkscape:window-x="-8"
     inkscape:window-y="-8"
     inkscape:window-maximized="1"
     inkscape:current-layer="layer1"
     showgrid="true"
     showborder="true"
     borderlayer="false"><inkscape:grid
       id="grid4"
       units="mm"
       originx="543.66193"
       originy="222.08838"
       spacingx="0.99999998"
       spacingy="1"
       empcolor="#0099e5"
       empopacity="0.30196078"
       color="#0099e5"
       opacity="0.14901961"
       empspacing="5"
       dotted="false"
       gridanglex="30"
       gridanglez="30"
       visible="true" /></sodipodi:namedview><defs
     id="defs1"><linearGradient
       id="swatch13"
       inkscape:swatch="solid"><stop
         style="stop-color:#004780;stop-opacity:1;"
         offset="0"
         id="stop14" /></linearGradient><linearGradient
       id="swatch12"
       inkscape:swatch="solid"><stop
         style="stop-color:#004780;stop-opacity:1;"
         offset="0"
         id="stop13" /></linearGradient><linearGradient
       id="swatch11"
       inkscape:swatch="solid"><stop
         style="stop-color:#004780;stop-opacity:1;"
         offset="0"
         id="stop12" /></linearGradient></defs><g
     inkscape:label="Layer 1"
     inkscape:groupmode="layer"
     id="layer1"
     transform="translate(383.01631,-8.8283599)"><path
       id="path1320"
       style="opacity:1;fill:#ff5151;fill-opacity:1;stroke-width:0.0714451;paint-order:fill markers stroke"
       d="m -379.0945,8.8283722 c -2.17266,0 -3.92181,1.7614068 -3.92181,3.9493718 v 5.330424 c 0,2.187964 1.74915,3.949371 3.92181,3.949371 h 5.38563 c 2.17266,0 3.92173,-1.761407 3.92173,-3.949371 v -5.330424 c 0,-2.187965 -1.74907,-3.9493718 -3.92173,-3.9493718 z m 2.69295,2.2047748 c 0.17934,0 0.35549,0.0657 0.48438,0.187844 0.1289,0.122113 0.20343,0.297781 0.20343,0.475596 v 3.525969 c 0,0.177834 -0.0745,0.3535 -0.20343,0.475595 -0.1289,0.122114 -0.30506,0.1875 -0.48438,0.1875 -0.17936,0 -0.3555,-0.06561 -0.48439,-0.187758 -0.12878,-0.122105 -0.20308,-0.297613 -0.20308,-0.475337 v -3.525969 c 0,-0.17784 0.0741,-0.353506 0.20308,-0.475596 0.12891,-0.122115 0.30506,-0.187844 0.48439,-0.187844 z m -2.94883,1.791019 h 6.6e-4 c 0.18391,0.0048 0.36098,0.08159 0.49575,0.209635 0.12686,0.120176 0.19692,0.299257 0.18526,0.473614 l -5e-4,3.5e-4 v 3.5e-4 c -0.0113,0.161338 -0.0726,0.316205 -0.17182,0.448551 l -0.001,0.0022 -0.002,0.0023 c -0.19424,0.245331 -0.34032,0.512313 -0.4408,0.804689 -0.10081,0.293336 -0.15098,0.591223 -0.15098,0.897447 0,0.804997 0.28515,1.463881 0.87859,2.026061 0.59343,0.562163 1.29781,0.8369 2.1562,0.8369 0.85837,0 1.5625,-0.274737 2.15594,-0.8369 0.59343,-0.56218 0.87858,-1.221064 0.87858,-2.026061 0,-0.314954 -0.0487,-0.619475 -0.14616,-0.916998 -0.0957,-0.292031 -0.24488,-0.557308 -0.45217,-0.801071 l -0.002,-0.002 -0.002,-0.002 c -0.10235,-0.126148 -0.166,-0.278903 -0.17708,-0.438475 -10e-6,-1.17e-4 1e-5,-2.5e-4 0,-3.5e-4 -0.0122,-0.17277 0.0595,-0.350195 0.18552,-0.46905 0.12997,-0.122968 0.30396,-0.193527 0.48369,-0.198523 h 3.3e-4 3.4e-4 c 0.18651,-0.0047 0.37262,0.07333 0.49678,0.211873 l 0.002,0.0016 0.002,0.002 c 0.31821,0.371014 0.56291,0.779557 0.73113,1.222665 0.16847,0.443738 0.25296,0.908941 0.25296,1.390269 0,0.580701 -0.11712,1.130563 -0.35157,1.640983 -0.23228,0.505738 -0.54839,0.949108 -0.94499,1.324812 -0.3966,0.37569 -0.86311,0.673682 -1.39423,0.892625 -0.53548,0.220707 -1.11061,0.330947 -1.71876,0.330987 h -3.3e-4 c -0.60817,-4e-5 -1.18321,-0.110279 -1.71868,-0.330987 -0.53114,-0.218943 -0.99764,-0.516932 -1.39423,-0.892625 -0.3966,-0.375702 -0.71235,-0.819075 -0.94464,-1.324812 -0.23444,-0.510418 -0.35192,-1.060283 -0.35192,-1.640983 0,-0.473758 0.0825,-0.936232 0.24641,-1.382518 0.1639,-0.446383 0.40216,-0.856768 0.71253,-1.228176 0.12197,-0.146744 0.31152,-0.233586 0.50204,-0.228496 z" /></g></svg>
