<?xml version="1.0" encoding="UTF-8" standalone="no"?>
<!-- Created with Inkscape (http://www.inkscape.org/) -->

<svg
   width="13.229167mm"
   height="13.229167mm"
   viewBox="0 0 13.229167 13.229167"
   version="1.1"
   id="svg1"
   xml:space="preserve"
   xmlns="http://www.w3.org/2000/svg"
   xmlns:svg="http://www.w3.org/2000/svg"><defs
     id="defs1"><linearGradient
       id="swatch13"><stop
         style="stop-color:#004780;stop-opacity:1;"
         offset="0"
         id="stop14" /></linearGradient><linearGradient
       id="swatch12"><stop
         style="stop-color:#004780;stop-opacity:1;"
         offset="0"
         id="stop13" /></linearGradient><linearGradient
       id="swatch11"><stop
         style="stop-color:#004780;stop-opacity:1;"
         offset="0"
         id="stop12" /></linearGradient></defs><g
     id="layer1"
     transform="translate(342.38496,-8.7121948)"><path
       d="m -336.69642,18.369483 4.66327,-4.663273 -0.92603,-0.92605 -3.73724,3.737223 -1.88515,-1.885148 -0.92605,0.926048 z m 0.92604,3.571872 q -1.37252,0 -2.57969,-0.5209 -1.20715,-0.5209 -2.10013,-1.413874 -0.89297,-0.892975 -1.41387,-2.100123 -0.5209,-1.20715 -0.5209,-2.5797 0,-1.372523 0.5209,-2.579673 0.5209,-1.20715 1.41387,-2.100122 0.89298,-0.8929754 2.10013,-1.4138754 1.20717,-0.5209 2.57969,-0.5209 1.37253,0 2.57968,0.5209 1.20717,0.5209 2.10012,1.4138754 0.89298,0.892972 1.41388,2.100122 0.5209,1.20715 0.5209,2.579673 0,1.37255 -0.5209,2.5797 -0.5209,1.207148 -1.41388,2.100123 -0.89295,0.892974 -2.10012,1.413874 -1.20715,0.5209 -2.57968,0.5209 z m 0,-1.322925 q 2.21588,0 3.75378,-1.537874 1.53787,-1.537898 1.53787,-3.753798 0,-2.215873 -1.53787,-3.753773 -1.5379,-1.537872 -3.75378,-1.537872 -2.21589,0 -3.75377,1.537872 -1.5379,1.5379 -1.5379,3.753773 0,2.2159 1.5379,3.753798 1.53788,1.537874 3.75377,1.537874 z m 0,-5.291672 z"
       id="path2"
       style="fill:#00d900;fill-opacity:1;stroke-width:0.0165365" /></g></svg>
