<?xml version="1.0" encoding="UTF-8" standalone="no"?>
<!-- Created with Inkscape (http://www.inkscape.org/) -->

<svg
   width="13.229158mm"
   height="13.229179mm"
   viewBox="0 0 13.229158 13.229179"
   version="1.1"
   id="svg1"
   xml:space="preserve"
   xmlns="http://www.w3.org/2000/svg"
   xmlns:svg="http://www.w3.org/2000/svg"><defs
     id="defs1"><linearGradient
       id="swatch13"><stop
         style="stop-color:#004780;stop-opacity:1;"
         offset="0"
         id="stop14" /></linearGradient><linearGradient
       id="swatch12"><stop
         style="stop-color:#004780;stop-opacity:1;"
         offset="0"
         id="stop13" /></linearGradient><linearGradient
       id="swatch11"><stop
         style="stop-color:#004780;stop-opacity:1;"
         offset="0"
         id="stop12" /></linearGradient></defs><g
     id="layer1"
     transform="translate(-28.108386,-40.31893)"><path
       style="fill:#00db00;fill-opacity:1;stroke-width:0.318545"
       d="m 31.469802,53.525296 c -1.43194,-0.213292 -2.668355,-1.237554 -3.151879,-2.611056 -0.220962,-0.627667 -0.209435,-0.408454 -0.209435,-3.982964 0,-3.036628 0.0033,-3.23482 0.05816,-3.469538 0.175798,-0.752423 0.50674,-1.383879 1.000552,-1.909108 0.531283,-0.565084 1.140284,-0.920504 1.973427,-1.15171 l 0.295439,-0.08199 h 3.265381 3.265383 l 0.337866,0.08811 c 0.787186,0.205285 1.430972,0.580671 1.958967,1.142256 0.482834,0.513554 0.787265,1.080837 0.992909,1.850208 0.06554,0.245195 0.06669,0.295944 0.07686,3.376184 0.0115,3.477539 0.01296,3.4468 -0.193619,4.064484 -0.437382,1.307846 -1.441925,2.239637 -2.818426,2.6143 l -0.323462,0.08804 -3.172086,0.0051 c -1.744647,0.0029 -3.254867,-0.0072 -3.356044,-0.02231 z m 3.961766,-2.846149 c 1.53191,-0.290769 2.733832,-1.500297 3.037547,-3.056772 0.07056,-0.361599 0.07056,-1.020598 0,-1.3822 -0.195791,-1.003386 -0.783954,-1.905763 -1.603396,-2.459984 -1.493654,-1.010217 -3.453478,-0.852097 -4.775484,0.385289 l -0.203233,0.190227 v -0.450161 c 0,-0.414866 -0.0055,-0.458452 -0.07002,-0.555891 -0.100695,-0.15206 -0.327146,-0.257692 -0.492505,-0.229738 -0.170052,0.02874 -0.358735,0.198314 -0.402778,0.361969 -0.02105,0.07821 -0.02957,0.502637 -0.02362,1.176472 l 0.0093,1.054122 0.0933,0.131644 c 0.176813,0.24949 0.162392,0.246995 1.426393,0.246995 1.071244,0 1.120545,-0.0025 1.219548,-0.0638 0.319424,-0.197529 0.309559,-0.659814 -0.01819,-0.852462 -0.09248,-0.05436 -0.178501,-0.06624 -0.575223,-0.07947 l -0.466484,-0.01555 0.186594,-0.181652 c 0.366203,-0.356507 0.855943,-0.617006 1.367837,-0.727573 0.282369,-0.06099 0.869315,-0.06099 1.151684,0 1.087028,0.234794 1.938277,1.08279 2.179358,2.171034 0.06767,0.305465 0.06767,0.873827 0,1.179292 -0.240011,1.083421 -1.086165,1.929836 -2.165897,2.166564 -0.302705,0.06637 -0.874426,0.0667 -1.175362,6.37e-4 -0.611229,-0.134086 -1.196274,-0.488544 -1.57906,-0.956695 -0.238907,-0.292184 -0.431287,-0.367504 -0.673652,-0.263743 -0.281864,0.120675 -0.386954,0.444907 -0.230681,0.711721 0.04346,0.0742 0.172552,0.235996 0.286876,0.359547 0.414377,0.447825 1.032413,0.836595 1.631918,1.026541 0.256806,0.08137 0.420288,0.114833 0.85522,0.175072 0.165914,0.02297 0.753507,-0.01278 1.010007,-0.06146 z"
       id="path3" /></g></svg>
